<?xml version="1.0" encoding="UTF-8"?><svg id="_ÎÓÈ_1" xmlns="http://www.w3.org/2000/svg" viewBox="0 0 638 67.038"><path d="M59.862,11.525c0,4.48-3.211,8.005-7.293,8.005-4.082,0-7.293-3.525-7.293-8.005,0-4.48,3.211-8.005,7.293-8.005s7.293,3.525,7.293,8.005Z" style="fill:#ffdf00;"/><path d="M64.437,20.627c-.439-.864.032.04,0,0h0Z" style="fill:#f73941;"/><path d="M69.347,36.078c-1.366.9-3.14.396-3.935-1.119-1.189-2.265-3.225-6.079-4.418-8.271-.15-.275-.362-.191-.453.045,0,.002,0,.004-.001.006-.03.269-.036.488-.037.816-.031,8.147.043,16.625-.014,24.748-.017,2.375-1.135,3.093-2.951,3.459-1.132.228-1.85-.595-2.53-1.389-.377-.441-.458-1.089-.582-1.671-.023-.104-.013-.188-.013-.336-.01-3.828.001-7.732-.01-11.56-.004-1.103-.82-1.992-1.82-1.992-.013,0-.026,0-.039,0-.988.023-1.779.906-1.783,1.991-.015,3.871.003,7.792-.029,11.665,0,.046.008.088.002.12-.11.61-.163,1.317-.567,1.787-.667.776-1.347,1.585-2.462,1.395-1.881-.32-3.042-1.139-3.048-3.57-.021-8.066.062-16.449.105-24.569.002-.409-.021-.616-.06-.964-.027-.233-.049-1.561-1.36-2.561-1.537-1.276-1.948-1.415-3.91-3.152-.914-.809-2.422-2.579-4.065-5.236.817-1.322,2.496-4.616,2.496-4.616,0,0-.296-3.802.11-2.632,1.381,3.974,4.939,7.833,7.497,9.52.497.328.72.512,1.132.749.783.451,1.452.817,2.232,1.169.486.22.95.384,1.455.512.73.185,1.464.305,2.211.314.748.01,1.487-.065,2.214-.24,1.094-.263,2.088-.755,3.046-1.378.671-.438,1.369-.756,2.117-.968.23-.065.416-.071.642-.094.003,0,.007,0,.008,0,.003,0,0-.001-.005-.01.835.157,1.428.163,2.2.686.795.538,1.217,1.131,1.714,1.89.001.002.002.003.003.004.123.243.318.624.616,1.205,1.048,2.043,3.739,7.012,5.301,10.012.77,1.477.322,3.359-1.008,4.234h0Z" style="fill:#ffdf00;"/><path d="M10.869,11.525c0,4.48,3.211,8.005,7.293,8.005,4.082,0,7.293-3.525,7.293-8.005,0-4.48-3.211-8.005-7.293-8.005s-7.293,3.525-7.293,8.005Z" style="fill:#0064a6;"/><path d="M6.294,20.627c-.032.04.439-.864,0,0h0Z" style="fill:#40c6f7;"/><path d="M35.366,15.721c-1.643,2.658-3.151,4.427-4.065,5.236-1.962,1.737-2.374,1.876-3.911,3.152-1.31,1-1.333,2.327-1.36,2.561-.04.348-.062.555-.06.964.043,8.12.126,16.503.105,24.569-.006,2.431-1.167,3.25-3.048,3.57-1.115.19-1.794-.62-2.462-1.395-.405-.47-.457-1.177-.567-1.787-.006-.032.003-.073.002-.12-.032-3.873-.013-7.794-.029-11.665-.004-1.085-.795-1.969-1.783-1.991-.013,0-.026,0-.039,0-1.001,0-1.817.889-1.82,1.992-.011,3.828,0,7.732-.01,11.56,0,.148.009.232-.013.336-.125.581-.205,1.23-.583,1.671-.68.794-1.398,1.618-2.53,1.389-1.817-.366-2.935-1.084-2.951-3.459-.056-8.122.018-16.6-.014-24.748-.001-.328-.007-.547-.037-.816,0-.002,0-.004-.001-.006-.09-.237-.303-.32-.453-.045-1.193,2.192-3.23,6.006-4.418,8.271-.795,1.515-2.569,2.019-3.935,1.119h0c-1.329-.876-1.777-2.757-1.008-4.234,1.563-3,4.254-7.969,5.301-10.012.298-.581.493-.963.616-1.205,0,0,.002-.002.003-.004.497-.758.919-1.351,1.714-1.89.772-.523,1.365-.529,2.2-.686-.005.008-.007.009-.005.01,0,0,.005,0,.008,0,.226.023.413.029.642.094.748.211,1.446.53,2.117.968.957.624,1.952,1.115,3.046,1.378.726.175,1.466.249,2.213.24.748-.009,1.481-.129,2.212-.314.504-.128.968-.292,1.455-.512.78-.352,1.449-.719,2.231-1.169.413-.237.635-.421,1.133-.749,2.558-1.687,6.116-5.546,7.497-9.52l.11,2.632s1.678,3.294,2.496,4.616Z" style="fill:#0064a6;"/><rect x="34.609" y=".082" width="1.506" height="5.225" rx=".721" ry=".721" style="fill:#173a25;"/><path d="M38.073,6.609h0c-.294-.323-.294-.846,0-1.169l2.301-2.525c.294-.323.771-.323,1.065,0h0c.294.323.294.846,0,1.169l-2.301,2.525c-.294.323-.771.323-1.065,0Z" style="fill:#173a25;"/><path d="M32.651,6.609h0c-.294.323-.771.323-1.065,0l-2.301-2.525c-.294-.323-.294-.846,0-1.169h0c.294-.323.771-.323,1.065,0l2.301,2.525c.294.323.294.846,0,1.169Z" style="fill:#173a25;"/><path d="M37.883,11.105c-.836,1.753-1.696,3.294-2.522,4.616-.826-1.322-1.685-2.863-2.522-4.616-.832-1.743.006-3.878,1.736-4.445l.033-.011c.236-.077.476-.116.715-.121.025,0,.051,0,.076,0,.239.005.479.044.715.121l.033.011c1.73.567,2.568,2.702,1.736,4.445Z" style="fill:#173a25;"/><path d="M94.394,35.859l-4.635,15.265h-5.959L98.963,2.592h6.952l15.229,48.532h-6.158l-4.767-15.265h-15.824ZM109.026,30.963l-4.37-13.969c-.993-3.168-1.656-6.049-2.318-8.857h-.132c-.663,2.88-1.391,5.833-2.251,8.785l-4.37,14.042h13.441Z" style="fill:#001728;"/><path d="M149.545,49.829c-1.523.864-4.899,2.016-9.203,2.016-9.667,0-15.957-7.129-15.957-17.786,0-10.729,6.754-18.506,17.215-18.506,3.443,0,6.489.937,8.077,1.8l-1.324,4.896c-1.391-.864-3.576-1.656-6.754-1.656-7.35,0-11.322,5.905-11.322,13.177,0,8.065,4.767,13.033,11.124,13.033,3.31,0,5.496-.936,7.151-1.728l.993,4.752Z" style="fill:#001728;"/><path d="M178.808,49.829c-1.523.864-4.899,2.016-9.203,2.016-9.667,0-15.957-7.129-15.957-17.786,0-10.729,6.754-18.506,17.215-18.506,3.443,0,6.489.937,8.077,1.8l-1.324,4.896c-1.391-.864-3.576-1.656-6.754-1.656-7.35,0-11.322,5.905-11.322,13.177,0,8.065,4.767,13.033,11.124,13.033,3.31,0,5.496-.936,7.151-1.728l.993,4.752Z" style="fill:#001728;"/><path d="M214.229,33.411c0,12.889-8.21,18.505-15.957,18.505-8.673,0-15.361-6.913-15.361-17.93,0-11.665,7.019-18.505,15.89-18.505,9.203,0,15.427,7.272,15.427,17.93ZM188.804,33.771c0,7.633,4.039,13.393,9.733,13.393,5.562,0,9.733-5.688,9.733-13.537,0-5.904-2.715-13.393-9.6-13.393s-9.866,6.913-9.866,13.537Z" style="fill:#001728;"/><path d="M248.39,41.62c0,3.601.066,6.769.265,9.505h-5.164l-.331-5.688h-.132c-1.523,2.808-4.9,6.48-10.594,6.48-5.032,0-11.058-3.024-11.058-15.265v-20.378h5.827v19.298c0,6.625,1.854,11.089,7.151,11.089,3.907,0,6.622-2.952,7.681-5.761.33-.936.529-2.088.529-3.24v-21.386h5.827v25.346Z" style="fill:#001728;"/><path d="M258.054,25.707c0-3.601-.066-6.553-.265-9.433h5.164l.331,5.761h.132c1.589-3.312,5.297-6.553,10.594-6.553,4.436,0,11.322,2.88,11.322,14.833v20.81h-5.826v-20.09c0-5.616-1.921-10.297-7.416-10.297-3.84,0-6.819,2.952-7.812,6.48-.265.792-.398,1.873-.398,2.953v20.954h-5.826v-25.418Z" style="fill:#001728;"/><path d="M301.55,6.265v10.009h8.343v4.825h-8.343v18.793c0,4.32,1.126,6.769,4.37,6.769,1.523,0,2.648-.216,3.376-.432l.265,4.752c-1.125.504-2.913.864-5.164.864-2.715,0-4.899-.936-6.29-2.665-1.655-1.872-2.251-4.968-2.251-9.073v-19.009h-4.966v-4.825h4.966V7.921l5.694-1.656Z" style="fill:#001728;"/><path d="M334.19,51.125l-.463-4.393h-.198c-1.788,2.736-5.231,5.185-9.8,5.185-6.489,0-9.799-4.968-9.799-10.009,0-8.425,6.886-13.033,19.267-12.961v-.72c0-2.88-.728-8.065-7.283-8.065-2.979,0-6.092,1.008-8.343,2.592l-1.325-4.176c2.649-1.872,6.489-3.096,10.528-3.096,9.8,0,12.183,7.272,12.183,14.257v13.033c0,3.024.133,5.977.53,8.353h-5.297ZM333.33,33.339c-6.357-.144-13.574,1.08-13.574,7.849,0,4.104,2.516,6.049,5.496,6.049,4.172,0,6.82-2.88,7.747-5.833.198-.648.331-1.368.331-2.016v-6.049Z" style="fill:#001728;"/><path d="M348.091,51.125c.132-2.376.265-5.904.265-9.001V0h5.76v21.89h.133c2.053-3.889,5.76-6.409,10.925-6.409,7.945,0,13.574,7.201,13.507,17.786,0,12.457-7.217,18.649-14.367,18.649-4.635,0-8.343-1.944-10.726-6.553h-.199l-.265,5.761h-5.031ZM354.116,37.155c0,.792.133,1.584.265,2.304,1.126,4.393,4.502,7.417,8.74,7.417,6.092,0,9.733-5.4,9.733-13.393,0-6.984-3.31-12.961-9.534-12.961-3.973,0-7.681,2.952-8.873,7.776-.132.72-.331,1.584-.331,2.592v6.265Z" style="fill:#001728;"/><path d="M392.515,6.48c.066,2.16-1.391,3.889-3.709,3.889-2.052,0-3.508-1.729-3.508-3.889,0-2.232,1.522-3.96,3.641-3.96,2.185,0,3.576,1.728,3.576,3.96ZM386.026,51.125V16.273h5.826v34.851h-5.826Z" style="fill:#001728;"/><path d="M401.518,0h5.826v51.125h-5.826V0Z" style="fill:#001728;"/><path d="M423.63,6.48c.066,2.16-1.391,3.889-3.709,3.889-2.052,0-3.508-1.729-3.508-3.889,0-2.232,1.522-3.96,3.641-3.96,2.185,0,3.576,1.728,3.576,3.96ZM417.141,51.125V16.273h5.826v34.851h-5.826Z" style="fill:#001728;"/><path d="M439.651,6.265v10.009h8.343v4.825h-8.343v18.793c0,4.32,1.126,6.769,4.37,6.769,1.523,0,2.648-.216,3.376-.432l.265,4.752c-1.125.504-2.913.864-5.164.864-2.715,0-4.899-.936-6.29-2.665-1.655-1.872-2.251-4.968-2.251-9.073v-19.009h-4.966v-4.825h4.966V7.921l5.694-1.656Z" style="fill:#001728;"/><path d="M457.259,16.273l7.019,20.594c.728,2.304,1.523,5.041,2.053,7.129h.132c.596-2.088,1.258-4.752,2.053-7.273l6.356-20.45h6.158l-8.74,24.842c-4.171,11.953-7.019,18.073-10.991,21.818-2.847,2.736-5.694,3.816-7.151,4.104l-1.457-5.329c1.457-.504,3.377-1.512,5.099-3.096,1.589-1.368,3.576-3.816,4.899-7.057.265-.648.463-1.152.463-1.512s-.132-.864-.397-1.656l-11.851-32.115h6.356Z" style="fill:#001728;"/><path d="M500.556,3.168c2.781-.504,6.422-.936,11.057-.936,5.695,0,9.866,1.44,12.514,4.032,2.45,2.304,3.907,5.833,3.907,10.153,0,4.393-1.193,7.849-3.444,10.369-3.045,3.528-8.011,5.328-13.639,5.328-1.721,0-3.311-.072-4.634-.432v19.442h-5.76V3.168ZM506.317,26.57c1.258.36,2.847.504,4.767.504,6.952,0,11.19-3.672,11.19-10.369,0-6.409-4.172-9.505-10.528-9.505-2.516,0-4.436.216-5.429.504v18.866Z" style="fill:#001728;"/><path d="M535.249,0h5.826v51.125h-5.826V0Z" style="fill:#001728;"/><path d="M568.616,51.125l-.463-4.393h-.198c-1.788,2.736-5.231,5.185-9.8,5.185-6.489,0-9.799-4.968-9.799-10.009,0-8.425,6.886-13.033,19.267-12.961v-.72c0-2.88-.728-8.065-7.283-8.065-2.979,0-6.092,1.008-8.343,2.592l-1.325-4.176c2.649-1.872,6.489-3.096,10.528-3.096,9.8,0,12.183,7.272,12.183,14.257v13.033c0,3.024.133,5.977.53,8.353h-5.297ZM567.756,33.339c-6.357-.144-13.574,1.08-13.574,7.849,0,4.104,2.516,6.049,5.496,6.049,4.172,0,6.82-2.88,7.747-5.833.198-.648.331-1.368.331-2.016v-6.049Z" style="fill:#001728;"/><path d="M605.626,49.829c-1.523.864-4.899,2.016-9.203,2.016-9.667,0-15.957-7.129-15.957-17.786,0-10.729,6.754-18.506,17.215-18.506,3.443,0,6.489.937,8.077,1.8l-1.324,4.896c-1.391-.864-3.576-1.656-6.754-1.656-7.35,0-11.322,5.905-11.322,13.177,0,8.065,4.767,13.033,11.124,13.033,3.31,0,5.496-.936,7.151-1.728l.993,4.752Z" style="fill:#001728;"/><path d="M615.29,34.851c.132,8.569,5.164,12.097,10.99,12.097,4.172,0,6.688-.792,8.873-1.8l.993,4.537c-2.053,1.008-5.562,2.16-10.66,2.16-9.866,0-15.758-7.057-15.758-17.57s5.694-18.793,15.03-18.793c10.461,0,13.241,10.009,13.241,16.417,0,1.296-.132,2.304-.198,2.952h-22.511ZM632.372,30.315c.066-4.033-1.523-10.297-8.078-10.297-5.892,0-8.475,5.904-8.938,10.297h17.016Z" style="fill:#001728;"/></svg>