<?xml version="1.0" encoding="UTF-8"?><svg id="Layer_1" xmlns="http://www.w3.org/2000/svg" viewBox="0 0 1000 1000"><rect x="0" width="1000" height="1000" rx="155.005" ry="155.005" style="fill:#fff;"/><path d="M811.528,291.214c0,56.975-40.836,101.805-92.75,101.805s-92.75-44.83-92.75-101.805,40.836-101.805,92.75-101.805,92.75,44.83,92.75,101.805Z" style="fill:#ffdf00;"/><path d="M932.156,603.472c-17.372,11.446-39.934,5.036-50.044-14.231-15.121-28.806-41.015-77.311-56.187-105.188-1.908-3.497-4.604-2.429-5.761.572,0,.025,0,.051-.013.076-.382,3.421-.458,6.206-.471,10.378-.394,103.611.547,211.432-.178,314.737-.216,30.205-14.435,39.336-37.53,43.99-14.396,2.9-23.528-7.567-32.176-17.665-4.795-5.609-5.825-13.85-7.402-21.251-.292-1.323-.165-2.391-.165-4.273-.127-48.683.013-98.333-.127-147.016-.051-14.028-10.428-25.334-23.146-25.334h-.496c-12.565.292-22.625,11.522-22.676,25.321-.191,49.23.038,99.096-.369,148.352,0,.585.102,1.119.025,1.526-1.399,7.758-2.073,16.749-7.211,22.726-8.483,9.869-17.131,20.158-31.311,17.741-23.922-4.07-38.687-14.485-38.764-45.402-.267-102.581.789-209.193,1.335-312.461.025-5.202-.267-7.834-.763-12.26-.343-2.963-.623-19.852-17.296-32.57-19.547-16.228-24.774-17.996-49.726-40.086-11.624-10.289-30.802-32.799-51.697-66.59,10.39-16.813,31.743-58.705,31.743-58.705,0,0-3.764-48.353,1.399-33.473,17.563,50.54,62.813,99.618,95.345,121.072,6.321,4.171,9.157,6.511,14.396,9.526,9.958,5.736,18.466,10.39,28.386,14.867,6.181,2.798,12.082,4.884,18.504,6.511,9.284,2.353,18.619,3.879,28.119,3.993,9.513.127,18.911-.827,28.157-3.052,13.913-3.345,26.555-9.602,38.738-17.525,8.534-5.57,17.411-9.615,26.923-12.311,2.925-.827,5.291-.903,8.165-1.195h.102c.038,0,0-.013-.064-.127,10.619,1.997,18.161,2.073,27.979,8.724,10.111,6.842,15.477,14.384,21.798,24.036.013.025.025.038.038.051,1.564,3.09,4.044,7.936,7.834,15.325,13.328,25.982,47.551,89.176,67.416,127.329,9.793,18.784,4.095,42.719-12.819,53.847h0l-.013.013Z" style="fill:#ffdf00;"/><path d="M188.451,291.214c0,56.975,40.836,101.805,92.75,101.805s92.75-44.83,92.75-101.805-40.836-101.805-92.75-101.805-92.75,44.83-92.75,101.805Z" style="fill:#0064a6;"/><path d="M499.996,344.578c-20.895,33.804-40.073,56.301-51.697,66.59-24.952,22.091-30.192,23.858-49.739,40.086-16.66,12.718-16.953,29.594-17.296,32.57-.509,4.426-.789,7.058-.763,12.26.547,103.268,1.602,209.88,1.335,312.461-.076,30.917-14.842,41.332-38.764,45.402-14.18,2.416-22.816-7.885-31.311-17.741-5.151-5.977-5.812-14.969-7.211-22.726-.076-.407.038-.928.025-1.526-.407-49.256-.165-99.122-.369-148.352-.051-13.799-10.111-25.041-22.676-25.321h-.496c-12.73,0-23.108,11.306-23.146,25.334-.14,48.683,0,98.333-.127,147.016,0,1.882.114,2.95-.165,4.273-1.59,7.389-2.607,15.643-7.414,21.251-8.648,10.098-17.779,20.577-32.176,17.665-23.108-4.655-37.326-13.786-37.53-43.99-.712-103.293.229-211.114-.178-314.737-.013-4.171-.089-6.957-.471-10.378,0-.025,0-.051-.013-.076-1.145-3.014-3.853-4.07-5.761-.572-15.172,27.877-41.078,76.382-56.187,105.188-10.111,19.267-32.672,25.677-50.044,14.231h0c-16.902-11.141-22.599-35.063-12.819-53.847,19.878-38.153,54.101-101.347,67.416-127.329,3.79-7.389,6.27-12.247,7.834-15.325,0,0,.025-.025.038-.051,6.321-9.64,11.688-17.182,21.798-24.036,9.818-6.651,17.36-6.728,27.979-8.724-.064.102-.089.114-.064.127h.102c2.874.293,5.252.369,8.165,1.195,9.513,2.683,18.39,6.74,26.923,12.311,12.171,7.936,24.825,14.18,38.738,17.525,9.233,2.226,18.644,3.167,28.144,3.052,9.513-.114,18.835-1.641,28.132-3.993,6.41-1.628,12.311-3.714,18.504-6.511,9.92-4.477,18.428-9.144,28.373-14.867,5.252-3.014,8.076-5.354,14.409-9.526,32.532-21.455,77.781-70.532,95.345-121.072l1.399,33.473s21.34,41.892,31.743,58.705l.013-.013Z" style="fill:#0064a6;"/><rect x="490.369" y="145.686" width="19.153" height="66.45" rx=".721" ry=".721" style="fill:#173a25;"/><path d="M534.423,228.694h0c-3.739-4.108-3.739-10.759,0-14.867l29.263-32.112c3.739-4.108,9.805-4.108,13.544,0h0c3.739,4.108,3.739,10.759,0,14.867l-29.263,32.112c-3.739,4.108-9.805,4.108-13.544,0Z" style="fill:#173a25;"/><path d="M465.467,228.694h0c-3.739,4.108-9.805,4.108-13.544,0l-29.263-32.112c-3.739-4.108-3.739-10.759,0-14.867h0c3.739-4.108,9.805-4.108,13.544,0l29.263,32.112c3.739,4.108,3.739,10.759,0,14.867Z" style="fill:#173a25;"/><path d="M532.006,285.873c-10.632,22.294-21.569,41.892-32.074,58.705-10.505-16.813-21.429-36.411-32.074-58.705-10.581-22.167.076-49.319,22.078-56.53l.42-.14c3.001-.979,6.054-1.475,9.093-1.539h.967c3.04.064,6.092.56,9.093,1.539l.42.14c22.002,7.211,32.659,34.363,22.078,56.53Z" style="fill:#173a25;"/></svg>